# xmcd
#
# Track frame offsets:
#	150
#	18982
#	32527
#	46305
#	64050
#	83147
#	102155
#	114622
#	131235
#	151442
#	165300
#	186172
#	201727
#	215605
#	235652
#	259590
#	276542
#	290500
#	304357
#	327055
#
# Disc length: 4552 seconds
#
# Revision: 1
# Processed by: cddbd v1.5.1PL0 Copyright (c) Steve Scherf et al.
# Submitted via: EasyCDDAExtractor 6.5.7.1
#
DISCID=2611c614
DTITLE=Mano Lima - 20 Preferidas
DYEAR=1900
DGENRE=Gaúcha
TTITLE0=Tô de Volta
TTITLE1=Gaudério Desgraçado
TTITLE2=Freio de Pau
TTITLE3=Tetéias de minha Infância
TTITLE4=Marcolina Pega-Gralha
TTITLE5=Tropa Miúda
TTITLE6=Pedro Ventania
TTITLE7=Cancela de Volta
TTITLE8=Trem do Bororé
TTITLE9=Congestão de Puchero
TTITLE10=Ninho de Amor
TTITLE11=Corvo Envenenado
TTITLE12=Dor de Corno
TTITLE13=Munição Moiada
TTITLE14=Canção de ninar
TTITLE15=Baguala
TTITLE16=Mosquetão Vazado
TTITLE17=Anemia Fequeciosa
TTITLE18=Carreta de minha Esperança
TTITLE19=Descascando Oveia
EXTD=
EXTT0=
EXTT1=
EXTT2=
EXTT3=
EXTT4=
EXTT5=
EXTT6=
EXTT7=
EXTT8=
EXTT9=
EXTT10=
EXTT11=
EXTT12=
EXTT13=
EXTT14=
EXTT15=
EXTT16=
EXTT17=
EXTT18=
EXTT19=
PLAYORDER=
